<svg xmlns="http://www.w3.org/2000/svg">
<defs>

<symbol id="link" viewBox="0 0 12.699999 12.7" height="18" width="18" style="fill:currentColor">
  <g transform="translate(-2.0719016,-274.14331)">
    <path d="m 11.345237,275.68967 c -0.392488,0.01 -0.787945,0.11428 -1.150317,0.3235 l -2.3714315,1.36942 c -0.4800354,0.27715 -0.8274214,0.69683 -1.0252604,1.17461 0.1365062,-0.087 0.2948369,-0.14004 0.4661215,-0.14004 0.2539807,0 0.4822944,0.11025 0.6469888,0.28783 0.1126088,-0.15941 0.258319,-0.3 0.4413168,-0.40566 l 2.3714318,-1.36942 c 0.667679,-0.38548 1.492948,-0.16436 1.878438,0.50333 0.38549,0.66768 0.164351,1.49296 -0.503329,1.87844 l -2.3714311,1.36942 c -0.5842196,0.3373 -1.2887984,0.20995 -1.7141071,-0.2744 -0.1636684,0.25369 -0.4371962,0.42013 -0.7493082,0.42013 -0.1016191,0 -0.1977647,-0.0218 -0.2888713,-0.0543 0.6877817,1.10724 2.1447381,1.48155 3.2814537,0.82527 l 2.371431,-1.36942 c 1.159591,-0.66949 1.560397,-2.16475 0.890902,-3.32435 -0.460278,-0.79722 -1.310553,-1.23574 -2.174028,-1.2144 z" />
    <path d="m 7.738739,279.06415 c -0.392489,0.01 -0.7879423,0.11427 -1.1503173,0.32349 L 4.21544,280.7581 c -1.1595907,0.66949 -1.5603966,2.16474 -0.8909016,3.32434 0.6694948,1.1596 2.1647542,1.5604 3.3243449,0.89091 l 2.3729817,-1.37046 c 0.5874991,-0.33919 0.979472,-0.89068 1.136881,-1.50275 -0.139211,0.11873 -0.309507,0.1912 -0.49661,0.1912 -0.2279674,0 -0.4335909,-0.10507 -0.5844606,-0.2744 -0.1115774,0.26999 -0.3068407,0.50862 -0.5849771,0.66921 l -2.3729817,1.36994 c -0.6676797,0.38548 -1.4929485,0.16488 -1.8784385,-0.50281 -0.3854899,-0.66769 -0.1643509,-1.49296 0.5033286,-1.87844 l 2.3729817,-1.36994 c 0.6265116,-0.36172 1.3920062,-0.18977 1.8024739,0.38447 0.1393667,-0.31058 0.417149,-0.524 0.7420737,-0.524 0.068171,0 0.1329949,0.0119 0.1963703,0.0295 -0.4704574,-0.74269 -1.2878532,-1.15124 -2.1197673,-1.13068 z" />
  </g>
</symbol>

<symbol id="share" viewBox="0 0 21.166666 21.166667" height="24" width="24">
  <g transform="translate(198.80688,-172.6289)">
    <path style="stroke-width:0.26458332" d="m -181.42653,184.32322 -0.5416,0.36777 v 5.35861 h -15.74668 v -11.91843 h 6.97045 c 0.7411,-0.24632 2.57836,-0.97419 3.49753,-1.08346 h -11.55145 v 14.08509 h 17.91362 v -7.17788 z"/>
    <polygon transform="matrix(0.26458333,0,0,0.26458333,-201.44411,170)" points="23.708,64.988 23.708,64.994 " />
    <path style="stroke-width:0.26458332" d="m -180.47853,178.19388 -1.31365,-0.8935 -2.95302,-2.00871 v 2.00871 0.45429 c -0.34951,0.0185 -0.68633,0.0489 -1.01176,0.0876 -0.91917,0.10927 -1.74467,0.29554 -2.48576,0.5416 -6.50346,2.16085 -6.52251,8.94953 -6.52251,9.0641 0,-0.0191 2.24525,-4.74954 10.02003,-5.14483 v 2.63578 l 3.1832,-2.16217 0.54187,-0.36804 0.5416,-0.36803 2.82972,-1.9222 z" />
  </g>
</symbol>

<symbol id="facebook" viewBox="0 0 1365.3333 1365.3333" height="24" width="24">
  <g transform="matrix(1.3333333,0,0,-1.3333333,0,1365.3333)scale(0.1)">
  <path style="fill:#100f0d" d="m 10240,5120 c 0,2827.7 -2292.3,5120 -5120,5120 C 2292.3,10240 0,7947.7 0,5120 0,2564.46 1872.31,446.301 4320,62.1992 V 3640 H 3020 v 1480 h 1300 v 1128 c 0,1283.2 764.38,1992 1933.9,1992 560.17,0 1146.1,-100 1146.1,-100 V 6880 H 6754.38 C 6118.35,6880 5920,6485.33 5920,6080.43 V 5120 H 7340 L 7113,3640 H 5920 V 62.1992 C 8367.69,446.301 10240,2564.46 10240,5120" />
  <path style="fill:#ffffff" d="m 7113,3640 227,1480 H 5920 v 960.43 c 0,404.9 198.35,799.57 834.38,799.57 H 7400 v 1260 c 0,0 -585.93,100 -1146.1,100 C 5084.38,8240 4320,7531.2 4320,6248 V 5120 H 3020 V 3640 H 4320 V 62.1992 C 4580.67,21.3008 4847.84,0 5120,0 c 272.16,0 539.33,21.3008 800,62.1992 V 3640 h 1193" />
  </g></symbol>

<symbol id="twitter" viewBox="0 0 400 400" height="24" width="24">
	<circle style="fill:#000000" cx="200" cy="200" r="200"/>
	<path style="fill:#ffffff" d="M163.4,305.5c88.7,0,137.2-73.5,137.2-137.2c0-2.1,0-4.2-0.1-6.2c9.4-6.8,17.6-15.3,24.1-25
		c-8.6,3.8-17.9,6.4-27.7,7.6c10-6,17.6-15.4,21.2-26.7c-9.3,5.5-19.6,9.5-30.6,11.7c-8.8-9.4-21.3-15.2-35.2-15.2
		c-26.6,0-48.2,21.6-48.2,48.2c0,3.8,0.4,7.5,1.3,11c-40.1-2-75.6-21.2-99.4-50.4c-4.1,7.1-6.5,15.4-6.5,24.2
		c0,16.7,8.5,31.5,21.5,40.1c-7.9-0.2-15.3-2.4-21.8-6c0,0.2,0,0.4,0,0.6c0,23.4,16.6,42.8,38.7,47.3c-4,1.1-8.3,1.7-12.7,1.7
		c-3.1,0-6.1-0.3-9.1-0.9c6.1,19.2,23.9,33.1,45,33.5c-16.5,12.9-37.3,20.6-59.9,20.6c-3.9,0-7.7-0.2-11.5-0.7
		C110.8,297.5,136.2,305.5,163.4,305.5"/>
</symbol>

<symbol id="reddit" viewBox="0 0 170.66667 170.66667" height="24" width="24">
<g transform="matrix(1.3333333,0,0,-1.3333333,0,170.66667)scale(0.1)">
<path style="fill:#000000" d="M 1280,640 C 1280,286.539 993.461,0 640,0 286.539,0 0,286.539 0,640 c 0,353.461 286.539,640 640,640 353.461,0 640,-286.539 640,-640" />
<path style="fill:#ffffff" d="m 786.668,506.656 c -36.762,0 -66.668,29.907 -66.668,66.66 0,36.77 29.906,66.684 66.668,66.684 36.758,0 66.664,-29.914 66.664,-66.684 0,-36.753 -29.906,-66.66 -66.664,-66.66 z M 798.406,397.168 C 752.902,351.73 665.715,348.195 640.078,348.195 c -25.644,0 -112.84,3.535 -158.285,48.981 -6.746,6.746 -6.746,17.687 0.004,24.433 6.742,6.743 17.683,6.746 24.433,-0.004 28.676,-28.679 90.028,-38.855 133.848,-38.855 43.82,0 105.184,10.18 133.91,38.867 6.758,6.738 17.696,6.727 24.434,-0.015 6.742,-6.754 6.734,-17.692 -0.016,-24.434 z M 426.668,573.324 c 0,36.766 29.918,66.676 66.695,66.676 36.742,0 66.637,-29.91 66.637,-66.676 0,-36.75 -29.895,-66.652 -66.637,-66.652 -36.777,0 -66.695,29.902 -66.695,66.652 z M 1066.56,640 c 0,51.547 -41.78,93.332 -93.33,93.332 -25.16,0 -47.949,-10.004 -64.734,-26.187 -63.797,46.039 -151.695,75.769 -249.601,79.187 l 42.519,200.027 138.906,-29.527 c 1.688,-35.316 30.614,-63.5 66.348,-63.5 36.816,0 66.664,29.848 66.664,66.668 0,36.82 -29.848,66.67 -66.664,66.67 -26.191,0 -48.621,-15.24 -59.523,-37.213 l -155.106,32.973 c -4.316,0.94 -8.836,0.09 -12.539,-2.32 -3.711,-2.41 -6.309,-6.2 -7.227,-10.52 l -47.48,-223.195 c -99.34,-2.758 -188.648,-32.532 -253.266,-79.082 -16.769,16.085 -39.48,26.019 -64.547,26.019 -51.546,0 -93.335,-41.785 -93.335,-93.332 0,-37.926 22.66,-70.5 55.144,-85.102 -1.437,-9.277 -2.226,-18.687 -2.226,-28.23 0,-143.594 167.148,-259.996 373.332,-259.996 206.187,0 373.335,116.402 373.335,259.996 0,9.477 -0.77,18.828 -2.19,28.047 32.69,14.515 55.52,47.207 55.52,85.285" />
</g></symbol>

<symbol id="email" height="24" width="24" viewBox="0 0 100 100">
  <rect ry="100" y="0" x="0" height="100" width="100" style="color:#000000" />
  <rect ry="5.1265259" y="30" x="17.5" height="40" width="65" style="fill:#ffffff" />
  <path d="M 12.045842,27.435577 46.875,50.504012 c 2.665962,1.76575 4.257925,1.737886 6.875,0 L 86.893498,27.435577 Z" style="stroke:#000000;fill:none;stroke-width:4" />
</symbol>

<symbol id="print" viewBox="0 0 90 90" width="24" height="24">
<path style="fill:#000000" d="m 67.8,40.5 c -1.3,0 -2.3,1 -2.3,2.3 0,1.3 1,2.3 2.3,2.3 1.3,0 2.3,-1 2.3,-2.3 C 70,41.5 69,40.5 67.8,40.5 Z M 45,0 C 20.1,0 0,20.1 0,45 0,69.9 20.1,90 45,90 69.9,90 90,69.9 90,45 90,20.1 69.9,0 45,0 Z M 60.3,26.2 H 50.7 V 16.6 Z M 46.2,14.4 v 14 c 0,1.3 1,2.3 2.3,2.3 h 14.1 v 3 H 26.9 V 14.4 Z M 63.1,71.8 H 27.4 V 51 h 35.7 z m 9.1,-9.7 c 0,1.3 -1,2.3 -2.2,2.3 H 67.5 V 51 c 0,-2.5 -2,-4.5 -4.5,-4.5 H 27.4 c -2.5,0 -4.5,2 -4.5,4.5 v 13.3 h -2.4 c -1.3,0 -2.3,-1 -2.3,-2.3 V 39.8 c 0,-1.3 1,-2.2 2.3,-2.2 H 70 c 1.3,0 2.2,1 2.2,2.2 z M 33.5,56.3 V 60 H 57 v -3.7 z m 0,5.8 v 3.6 H 57 v -3.6 z" />
</symbol>

</defs>
</svg>
