<?xml version="1.0" encoding="UTF-8" standalone="no"?>
<svg xmlns="http://www.w3.org/2000/svg" viewBox="0 0 89.999996 90.000003">
<path transform="translate(-3.8146973e-6,0)" d="M 41.708984 4.5097656 C 41.061403 4.5899385 40.678026 5.2136127 40.865234 6.8691406 C 43.20843 20.415872 18.939928 35.613193 43.113281 48.572266 C 43.581094 48.821876 43.737318 48.375799 43.683594 48.175781 C 41.417264 39.419583 43.534694 32.722718 46.039062 29.398438 C 46.24404 29.123206 46.319645 29.327192 46.289062 29.451172 C 44.998033 34.323532 43.560709 39.381337 46.267578 48.486328 C 46.492393 48.982242 46.629649 49.10877 47.279297 48.820312 C 62.065811 41.828745 61.47667 16.095461 44.138672 5.4101562 C 43.267102 4.8919256 42.356566 4.4295928 41.708984 4.5097656 z M 44.894531 50.611328 L 44.894531 50.621094 C 44.617645 50.655804 44.305598 50.779308 43.960938 51.042969 C 36.893329 57.267523 21.393094 56.740732 11.599609 52.552734 C 10.223446 52.050207 9.2684416 52.069598 9.4238281 54.378906 C 10.812389 74.96845 27.611137 85.352579 44.679688 85.498047 L 44.679688 85.5 C 44.78631 85.500826 44.892552 85.498047 45 85.498047 C 45.107448 85.498047 45.212864 85.500873 45.320312 85.5 L 45.320312 85.498047 C 62.388863 85.351799 79.188438 74.96845 80.576172 54.378906 C 80.731558 52.069598 79.776553 52.050207 78.400391 52.552734 C 68.605253 56.739906 53.105844 57.267523 46.039062 51.042969 C 45.694402 50.780134 45.382355 50.655808 45.105469 50.621094 L 45.105469 50.611328 C 45.070759 50.610501 45.035538 50.610502 45 50.611328 C 44.96446 50.610502 44.929246 50.610454 44.894531 50.611328 z M 43.392578 56.574219 C 43.623347 56.574219 43.716076 56.689153 43.669922 56.919922 C 43.439153 57.289153 43.207332 57.797206 42.976562 58.443359 L 42.908203 58.650391 L 42.837891 59.966797 L 42.908203 60.451172 L 42.976562 60.935547 L 42.976562 63.84375 C 43.022716 64.166827 43.022716 64.396695 42.976562 64.535156 C 43.06887 64.904387 43.093029 65.297506 43.046875 65.712891 L 43.046875 66.888672 C 43.093029 67.165595 43.06887 67.465986 42.976562 67.789062 L 43.046875 67.996094 L 43.115234 70.490234 C 43.069081 70.905619 43.13765 71.389513 43.322266 71.943359 C 43.368419 72.081821 43.392578 72.265325 43.392578 72.496094 C 43.53104 73.096094 43.853636 73.719081 44.361328 74.365234 C 44.592097 74.226773 44.846124 74.043269 45.123047 73.8125 C 45.307662 73.720192 45.515325 73.558894 45.746094 73.328125 L 45.953125 73.257812 L 46.023438 73.466797 L 45.330078 74.365234 C 45.23777 74.503696 45.076472 74.689153 44.845703 74.919922 L 44.707031 74.990234 L 43.392578 76.236328 L 42.908203 76.511719 C 42.308203 76.465565 41.86872 76.05024 41.591797 75.265625 C 41.545643 74.942548 41.454868 74.573588 41.316406 74.158203 C 41.316406 73.88128 41.245883 73.580889 41.107422 73.257812 L 41.107422 72.84375 L 41.039062 72.566406 L 40.96875 72.289062 L 40.96875 71.042969 L 41.039062 70.697266 L 40.96875 69.935547 C 41.014904 69.61247 41.014904 69.197145 40.96875 68.689453 L 40.96875 65.78125 L 40.900391 65.019531 L 40.96875 64.605469 L 40.900391 64.189453 L 40.830078 63.773438 L 40.830078 62.458984 C 40.691617 61.812831 40.508113 61.788672 40.277344 62.388672 C 40.185036 62.711749 40.023738 63.058504 39.792969 63.427734 L 39.445312 64.119141 L 39.238281 64.535156 L 39.03125 64.880859 C 38.892788 65.296244 38.685126 65.711569 38.408203 66.126953 L 38.269531 66.474609 L 38.130859 66.613281 C 37.992398 67.028666 37.716166 67.51256 37.300781 68.066406 C 37.16232 68.297175 37.091797 68.458474 37.091797 68.550781 L 36.953125 68.689453 C 36.860817 68.920222 36.699519 69.220613 36.46875 69.589844 C 36.422596 69.774459 36.307662 69.957963 36.123047 70.142578 C 36.076893 70.28104 35.984165 70.466496 35.845703 70.697266 L 35.707031 70.904297 L 35.015625 72.359375 C 34.877163 72.590144 34.784435 72.888582 34.738281 73.257812 C 34.692127 73.396274 34.599399 73.581731 34.460938 73.8125 L 33.769531 74.365234 L 33.630859 74.435547 C 33.446244 74.758624 33.145853 75.059014 32.730469 75.335938 C 32.453546 75.474399 32.270042 75.428035 32.177734 75.197266 C 32.223888 75.01265 32.223888 74.804988 32.177734 74.574219 L 31.761719 73.742188 L 31.554688 73.328125 L 31.207031 72.773438 L 30.931641 72.082031 L 30.792969 71.873047 L 30.654297 71.527344 C 30.469681 71.296575 30.262019 70.951773 30.03125 70.490234 L 29.822266 70.074219 L 28.230469 67.443359 L 28.162109 67.236328 C 28.069802 67.005559 27.908504 66.727374 27.677734 66.404297 L 27.607422 66.197266 C 27.46896 66.01265 27.331821 65.780829 27.193359 65.503906 C 27.054898 65.273137 26.962169 65.043269 26.916016 64.8125 L 26.777344 64.605469 C 26.73119 64.559315 26.684826 64.466587 26.638672 64.328125 L 26.431641 63.982422 L 26.361328 63.705078 L 25.945312 63.011719 L 25.738281 62.666016 L 25.53125 62.458984 C 25.485096 62.689754 25.370162 62.94378 25.185547 63.220703 L 25.392578 63.566406 C 25.30027 64.027945 25.276112 64.604567 25.322266 65.296875 L 25.253906 65.574219 L 25.253906 66.265625 C 25.392368 68.804087 24.723017 71.205258 23.246094 73.466797 C 24.307632 74.528335 25.460877 74.758203 26.707031 74.158203 C 26.845493 74.158203 26.938221 74.250931 26.984375 74.435547 L 25.945312 75.265625 L 25.669922 75.474609 L 25.392578 75.888672 C 25.161809 76.027133 24.907782 76.234796 24.630859 76.511719 L 24.076172 76.720703 C 23.33771 76.674549 22.577584 76.420523 21.792969 75.958984 L 21.308594 75.820312 L 20.960938 75.75 C 20.86863 75.565385 20.86863 75.357722 20.960938 75.126953 L 21.654297 74.228516 L 21.931641 73.951172 L 22.070312 73.742188 L 22.416016 73.396484 L 22.900391 72.566406 L 23.316406 70.626953 L 23.246094 70.142578 L 23.384766 69.728516 L 23.453125 68.966797 L 23.453125 66.404297 L 23.523438 66.126953 L 23.523438 65.574219 C 23.569591 65.066526 23.523227 64.44354 23.384766 63.705078 L 23.453125 63.496094 L 23.384766 62.458984 L 23.453125 62.181641 L 23.384766 61.835938 L 23.453125 61.212891 L 23.316406 60.796875 L 23.523438 60.035156 C 23.061899 59.665925 22.461118 59.482422 21.722656 59.482422 C 21.491887 59.620883 21.215655 59.850751 20.892578 60.173828 C 20.754117 60.266136 20.56866 60.427434 20.337891 60.658203 L 19.992188 61.074219 L 19.507812 61.558594 C 19.369351 61.558594 19.300781 61.465865 19.300781 61.28125 L 19.576172 60.865234 L 19.992188 60.380859 L 20.0625 60.173828 L 22.277344 57.958984 L 22.830078 57.542969 L 23.107422 57.404297 C 23.615114 57.265835 24.169531 57.289994 24.769531 57.474609 L 25.945312 58.304688 L 26.777344 59.205078 C 27.008113 59.482001 27.262139 59.873167 27.539062 60.380859 C 27.723678 60.565475 27.884976 60.773137 28.023438 61.003906 L 28.230469 61.490234 C 28.461238 61.767157 28.646695 62.111959 28.785156 62.527344 L 28.853516 62.666016 C 28.991977 62.850631 29.106911 63.082452 29.199219 63.359375 L 29.408203 63.773438 L 30.03125 64.880859 L 30.099609 65.089844 C 30.376532 65.412921 30.630559 65.828245 30.861328 66.335938 L 31 66.474609 C 31.138462 66.797686 31.346124 67.166647 31.623047 67.582031 C 31.761508 67.8128 31.854237 67.996304 31.900391 68.134766 L 32.591797 69.380859 L 32.730469 69.519531 L 33.353516 70.697266 L 33.492188 71.113281 L 33.976562 71.736328 C 34.253486 71.459405 34.507512 71.088492 34.738281 70.626953 C 34.784435 70.442338 34.877163 70.258834 35.015625 70.074219 L 35.361328 69.3125 L 35.570312 69.105469 L 35.707031 68.689453 C 35.845493 68.504838 35.972506 68.285096 36.087891 68.03125 C 36.203275 67.777404 36.354447 67.513251 36.539062 67.236328 L 36.607422 66.958984 L 36.816406 66.681641 L 36.884766 66.404297 C 36.930919 66.358143 36.977284 66.265415 37.023438 66.126953 C 37.254207 65.803876 37.484075 65.388552 37.714844 64.880859 L 37.785156 64.742188 L 38.0625 63.982422 L 38.199219 63.773438 L 38.337891 63.359375 C 38.430198 63.220913 38.522927 63.035457 38.615234 62.804688 L 38.685547 62.597656 C 38.916316 62.228425 39.146184 61.720373 39.376953 61.074219 C 39.561569 60.84345 39.747025 60.520853 39.931641 60.105469 L 40.070312 59.966797 C 40.208774 59.64372 40.345913 59.365535 40.484375 59.134766 C 40.807452 58.673227 41.315505 58.167127 42.007812 57.613281 L 42.285156 57.404297 L 42.5625 57.197266 L 42.837891 56.990234 L 43.253906 56.712891 L 43.392578 56.574219 z M 64.054688 56.919922 L 65.091797 56.919922 L 65.230469 56.990234 C 66.661238 56.897927 68.114874 57.196364 69.591797 57.888672 L 70.353516 58.097656 C 70.445823 58.236118 70.492188 58.373257 70.492188 58.511719 C 70.261418 58.927103 69.846094 59.366587 69.246094 59.828125 C 69.246094 60.151202 69.177524 60.520162 69.039062 60.935547 L 68.96875 61.351562 L 68.900391 61.835938 L 68.900391 62.042969 L 68.623047 62.458984 L 68.277344 62.25 C 68.508113 61.603846 68.530319 60.91229 68.345703 60.173828 C 66.314934 59.019982 64.030649 58.626863 61.492188 58.996094 C 58.676803 59.226863 57.03771 60.865956 56.576172 63.912109 C 56.253095 67.189032 57.291406 70.166827 59.691406 72.84375 C 59.876022 72.982212 60.154207 73.14351 60.523438 73.328125 L 61.285156 73.742188 L 61.699219 73.880859 C 64.976142 75.634706 67.953936 75.380679 70.630859 73.119141 L 70.699219 73.605469 C 68.160757 76.559315 65.23128 77.573468 61.908203 76.650391 C 59.462049 76.327314 57.476202 75.034976 55.953125 72.773438 C 52.53774 66.450361 54.130469 61.397897 60.730469 57.613281 C 61.053546 57.520974 61.422506 57.450451 61.837891 57.404297 C 62.391737 57.127374 63.038882 57.01244 63.777344 57.058594 L 64.054688 56.919922 z M 52.072266 57.560547 L 52.417969 57.837891 L 52.349609 60.052734 L 52.279297 60.330078 L 52.349609 60.882812 C 52.441917 61.067428 52.464123 61.299249 52.417969 61.576172 L 52.417969 61.853516 L 52.349609 62.199219 L 52.417969 62.960938 L 52.349609 63.445312 L 52.279297 63.998047 C 52.325451 64.228816 52.349609 64.507001 52.349609 64.830078 L 52.279297 65.175781 L 52.349609 67.183594 C 52.303456 67.552825 52.303456 68.014513 52.349609 68.568359 L 52.279297 68.775391 L 52.210938 70.505859 L 52.279297 70.714844 L 52.210938 70.921875 L 52.279297 71.128906 L 52.279297 71.544922 C 52.186989 71.867999 52.164784 72.283323 52.210938 72.791016 L 52.140625 72.929688 L 52.003906 75.421875 C 51.957752 75.698798 51.957752 75.930619 52.003906 76.115234 L 51.933594 76.599609 L 51.865234 77.013672 L 51.449219 78.191406 L 51.449219 78.398438 L 50.894531 79.367188 L 50.6875 79.714844 L 50.619141 79.921875 C 50.434525 80.10649 50.226863 80.360517 49.996094 80.683594 L 49.580078 80.960938 L 49.441406 81.167969 C 49.349099 81.214123 49.25637 81.306851 49.164062 81.445312 L 48.957031 81.513672 L 48.541016 81.998047 L 48.333984 82.068359 L 48.056641 82.345703 L 47.640625 82.621094 L 47.294922 82.898438 C 47.110306 82.990745 46.926803 83.129838 46.742188 83.314453 C 46.557572 83.314453 46.325751 83.268089 46.048828 83.175781 C 45.494982 83.452704 44.896154 83.545433 44.25 83.453125 C 44.342308 83.176202 44.525811 82.990745 44.802734 82.898438 L 45.910156 82.552734 C 46.094772 82.414273 46.372957 82.27518 46.742188 82.136719 L 47.15625 81.998047 C 47.202404 81.951893 47.341496 81.861118 47.572266 81.722656 L 47.988281 81.513672 L 48.472656 80.890625 L 48.611328 80.751953 L 49.302734 79.367188 L 49.373047 78.953125 L 49.511719 78.744141 C 49.511719 78.421064 49.580288 78.076262 49.71875 77.707031 C 49.672596 77.383954 49.694802 77.014994 49.787109 76.599609 L 49.787109 75.767578 L 49.857422 75.005859 L 49.857422 73.621094 C 49.903576 73.344171 49.925781 73.021575 49.925781 72.652344 L 49.925781 71.060547 C 50.018089 70.691316 50.064453 70.251833 50.064453 69.744141 L 49.996094 69.398438 L 49.996094 68.429688 C 49.94994 68.060457 49.972145 67.622927 50.064453 67.115234 L 49.996094 66.767578 C 50.042248 66.444501 50.042248 66.075541 49.996094 65.660156 L 50.064453 65.244141 C 50.018299 64.87491 50.042458 64.43738 50.134766 63.929688 L 50.134766 62.683594 L 50.029297 61.957031 C 50.00622 61.795493 50.018299 61.644321 50.064453 61.505859 L 49.996094 61.091797 L 49.925781 60.744141 C 49.048858 60.190294 48.079117 60.190294 47.017578 60.744141 C 46.879117 60.651833 46.810547 60.514694 46.810547 60.330078 C 47.133624 60.145463 47.526743 59.984165 47.988281 59.845703 C 48.21905 59.476472 48.541647 59.176082 48.957031 58.945312 L 49.441406 58.738281 C 49.856791 58.645974 50.272115 58.460517 50.6875 58.183594 L 50.894531 58.115234 C 51.1253 58.069081 51.518419 57.883624 52.072266 57.560547 z " /></svg>
